<?xml version="1.0" encoding="utf-8"?>
<!-- Generator: Adobe Illustrator 19.1.0, SVG Export Plug-In . SVG Version: 6.00 Build 0)  -->
<svg version="1.1" id="clear" xmlns="http://www.w3.org/2000/svg" xmlns:xlink="http://www.w3.org/1999/xlink" x="0px" y="0px"
	 viewBox="0 0 16 16" enable-background="new 0 0 16 16" xml:space="preserve">
<path d="M14,2H6C5.5,2,5,2.1,4.6,2.6l-4,4c-0.8,0.8-0.8,2,0,2.8l4,4C4.9,13.8,5.5,14,6,14h8c1.1,0,2-0.9,2-2V4C16,2.9,15.1,2,14,2z
	 M12.2,11.6L9.9,9.3l-2.3,2.3l-1.4-1.4L8.4,8L6.1,5.7l1.4-1.4l2.3,2.2l2.2-2.2l1.4,1.4L11.3,8l2.3,2.2L12.2,11.6z"/>
</svg>
