<?xml version="1.0" encoding="utf-8"?>
<!-- Generator: Adobe Illustrator 19.1.0, SVG Export Plug-In . SVG Version: 6.00 Build 0)  -->
<svg version="1.1" id="Layer_1" xmlns="http://www.w3.org/2000/svg" xmlns:xlink="http://www.w3.org/1999/xlink" x="0px" y="0px"
	 viewBox="0 0 96 16" enable-background="new 0 0 96 16" xml:space="preserve">
<g>
	<path d="M58.1,0.1c-2.5,0-4.6,2.1-4.6,4.6c0-2.5-2.1-4.6-4.6-4.6s-4.6,2.1-4.6,4.6c0,7.5,9.1,11.4,9.1,11.4s9.1-3.9,9.1-11.4
		C62.8,2.1,60.7,0.1,58.1,0.1z"/>
	<path d="M19.9,0.5c-0.6-0.6-1.6-0.6-2.2,0c-0.6,0.6-0.6,1.6,0,2.2l5.2,5.4l-5.2,5.2c-0.6,0.6-0.6,1.6,0,2.2
		c0.3,0.3,0.7,0.4,1.2,0.4s0.9-0.1,1.1-0.4l6.4-6.4c0.6-0.6,0.6-1.6,0-2.2L19.9,0.5z"/>
	<path d="M9.2,0.5c-0.6-0.6-1.6-0.6-2.2,0L0.5,6.9c-0.6,0.6-0.6,1.6,0,2.2l6.4,6.4C7.2,15.9,7.7,16,8.1,16s0.9-0.1,1.1-0.5
		c0.6-0.6,0.6-1.6,0-2.2L3.9,8l5.2-5.2C9.9,2.1,9.9,1.1,9.2,0.5z"/>
	<path d="M39.1,7.2h-2.2V5c0-0.5-0.4-0.9-0.9-0.9S35.1,4.5,35.1,5v2.2h-2.2c-0.5,0-0.9,0.4-0.9,0.9S32.4,9,32.9,9h2.2v2.2
		c0,0.5,0.4,0.9,0.9,0.9s0.9-0.4,0.9-0.9V9h2.2C39.6,9,40,8.6,40,8.1S39.5,7.2,39.1,7.2z"/>
	<path d="M74.1,5.6h-6.2C67.4,5.6,67,6,67,6.5s0.4,0.9,0.9,0.9h6.2C74.6,7.4,75,7,75,6.5S74.6,5.6,74.1,5.6z"/>
	<path d="M74.1,8.7h-6.2c-0.5,0-0.9,0.4-0.9,0.9s0.4,0.9,0.9,0.9h6.2c0.5,0,0.9-0.4,0.9-0.9S74.6,8.7,74.1,8.7z"/>
	<path d="M80,0v16h16V0H80z M94.4,14.4H88V8h-6.4V1.6h12.8V14.4z"/>
</g>
</svg>
