<?xml version="1.0" encoding="utf-8"?>
<!-- Generator: Adobe Illustrator 19.1.0, SVG Export Plug-In . SVG Version: 6.00 Build 0)  -->
<svg version="1.1" id="cog" xmlns="http://www.w3.org/2000/svg" xmlns:xlink="http://www.w3.org/1999/xlink" x="0px" y="0px"
	 viewBox="0 0 16 16" enable-background="new 0 0 16 16" xml:space="preserve">
<path d="M15.2,6.4h-0.4c-0.3,0-0.6-0.2-0.8-0.6c-0.1-0.2-0.2-0.4-0.2-0.6c-0.2-0.3-0.1-0.7,0.2-1L14.2,4c0.3-0.3,0.3-0.8,0-1.1
	l-1.1-1.1c-0.3-0.3-0.8-0.3-1.1,0l-0.3,0.3c-0.2,0.2-0.6,0.3-1,0.2c-0.2-0.1-0.4-0.2-0.6-0.2C9.8,1.8,9.6,1.6,9.6,1.2V0.8
	C9.6,0.3,9.3,0,8.8,0H7.2C6.7,0,6.4,0.3,6.4,0.8v0.4c0,0.3-0.2,0.6-0.6,0.8C5.7,2.1,5.4,2.2,5.3,2.2C5,2.4,4.6,2.3,4.3,2.1L4.1,1.8
	C3.8,1.4,3.3,1.4,3,1.8L1.8,2.9C1.4,3.2,1.4,3.7,1.8,4l0.3,0.3c0.2,0.2,0.3,0.6,0.2,1C2.2,5.4,2.1,5.7,2,5.8
	C1.8,6.2,1.6,6.4,1.2,6.4H0.8C0.3,6.4,0,6.7,0,7.2v1.6c0,0.5,0.3,0.8,0.8,0.8h0.4c0.3,0,0.6,0.2,0.8,0.6c0.1,0.2,0.2,0.4,0.2,0.6
	c0.2,0.3,0.1,0.7-0.2,1L1.8,12c-0.3,0.3-0.3,0.8,0,1.1l1.1,1.1c0.3,0.3,0.8,0.3,1.1,0l0.3-0.3c0.2-0.2,0.6-0.3,1-0.2
	c0.2,0.1,0.4,0.2,0.6,0.2c0.3,0.2,0.6,0.4,0.6,0.8v0.4c0,0.5,0.3,0.8,0.8,0.8h1.6c0.5,0,0.8-0.3,0.8-0.8v-0.4c0-0.3,0.2-0.6,0.6-0.8
	c0.2-0.1,0.4-0.2,0.6-0.2c0.3-0.2,0.7-0.1,1,0.2l0.3,0.3c0.3,0.3,0.8,0.3,1.1,0l1.1-1.1c0.3-0.3,0.3-0.8,0-1.1l-0.3-0.3
	c-0.2-0.2-0.3-0.6-0.2-1c0.1-0.2,0.2-0.4,0.2-0.6c0.1-0.3,0.4-0.6,0.8-0.6h0.4c0.5,0,0.8-0.3,0.8-0.8V7.2C16,6.7,15.7,6.4,15.2,6.4z
	 M10.1,8.4c-0.2,0.8-0.9,1.5-1.7,1.7c-1.5,0.3-2.8-1-2.5-2.5c0.2-0.8,0.9-1.5,1.7-1.7C9.1,5.6,10.4,6.9,10.1,8.4z"/>
</svg>
