<?xml version="1.0" encoding="utf-8"?>
<!-- Generator: Adobe Illustrator 19.1.0, SVG Export Plug-In . SVG Version: 6.00 Build 0)  -->
<svg version="1.1" id="Layer_1" xmlns="http://www.w3.org/2000/svg" xmlns:xlink="http://www.w3.org/1999/xlink" x="0px" y="0px"
	 viewBox="0 0 16 16" enable-background="new 0 0 16 16" xml:space="preserve">
<path d="M8,0C3.5,0,0,3.5,0,8s3.5,8,8,8s8-3.5,8-8S12.5,0,8,0z M8,13c-0.6,0-1-0.5-1-1c0-0.6,0.5-1,1-1c0.6,0,1,0.5,1,1
	C9,12.6,8.6,13,8,13z M9.6,7.9L9.6,7.9C9,8.2,8.7,8.7,8.7,9.4c0,0.5-0.4,0.8-0.8,0.8c-0.4,0-0.8-0.4-0.8-0.8c0.1-1,0.7-2,1.7-2.5
	l0,0c0.5-0.2,0.7-0.7,0.7-1.2c0-0.8-0.6-1.4-1.5-1.4S6.5,4.8,6.5,5.6c0,0.5-0.4,0.8-0.8,0.8S4.8,6.1,4.8,5.6C4.8,4.2,6.2,3,8,3
	s3.2,1.2,3.2,2.6C11.2,6.6,10.6,7.4,9.6,7.9z"/>
</svg>
