<?xml version="1.0" encoding="utf-8"?>
<!-- Generator: Adobe Illustrator 19.1.0, SVG Export Plug-In . SVG Version: 6.00 Build 0)  -->
<svg version="1.1" id="Layer_1" xmlns="http://www.w3.org/2000/svg" xmlns:xlink="http://www.w3.org/1999/xlink" x="0px" y="0px"
	 viewBox="0 0 16 16" style="enable-background:new 0 0 16 16;" xml:space="preserve">
<path d="M14.2,4.7c-0.7,3.3-3,5.1-6.6,5.1H6.3l-0.7,4.6c-0.1,0.4-0.4,0.7-0.8,0.7H4.6l-0.1,0.5c0,0.2,0.1,0.4,0.4,0.4h2.6
	c0.3,0,0.6-0.2,0.6-0.5l0-0.1l0.5-3.1l0-0.2c0-0.3,0.3-0.5,0.6-0.5h0.4c2.5,0,4.5-1,5-4C14.9,6.4,14.8,5.4,14.2,4.7z"/>
<path id="path14527_1_" d="M12.8,1.2C12,0.4,10.7,0,9,0H4C3.6,0,3.4,0.3,3.3,0.6L1.2,13.7c0,0.3,0.2,0.5,0.4,0.5h3.1l0.8-4.9l0,0.2
	c0.1-0.3,0.4-0.6,0.7-0.6h1.5c2.9,0,5.1-1.2,5.8-4.5c0-0.1,0-0.2,0.1-0.3c-0.1,0-0.1,0,0,0C13.6,2.8,13.4,2,12.8,1.2"/>
</svg>
