<?xml version="1.0" encoding="utf-8"?>
<!-- Generator: Adobe Illustrator 19.1.0, SVG Export Plug-In . SVG Version: 6.00 Build 0)  -->
<svg version="1.1" id="Layer_1" xmlns="http://www.w3.org/2000/svg" xmlns:xlink="http://www.w3.org/1999/xlink" x="0px" y="0px"
	 viewBox="0 0 16 16" enable-background="new 0 0 16 16" xml:space="preserve">
<g>
	<g>
		<path d="M8.7,0.7l1.9,4c0.1,0.2,0.2,0.4,0.5,0.4l4.3,0.6c0.6,0.1,0.8,0.8,0.4,1.1L12.7,10c-0.2,0.2-0.2,0.4-0.2,0.6l0.7,4.3
			c0.1,0.6-0.5,1-1,0.6l-3.9-2c-0.2-0.1-0.4-0.1-0.6,0l-3.8,2c-0.5,0.2-1.1-0.2-1-0.6l0.7-4.3c0.1-0.2-0.1-0.5-0.2-0.6L0.2,6.9
			C-0.2,6.5,0,5.8,0.6,5.8L5,5.1C5.2,5,5.4,5,5.5,4.7l1.9-4C7.7,0.2,8.4,0.2,8.7,0.7z"/>
	</g>
</g>
</svg>
