<?xml version="1.0" encoding="utf-8"?>
<!-- Generator: Adobe Illustrator 19.1.0, SVG Export Plug-In . SVG Version: 6.00 Build 0)  -->
<svg version="1.1" id="Layer_1" xmlns="http://www.w3.org/2000/svg" xmlns:xlink="http://www.w3.org/1999/xlink" x="0px" y="0px"
	 viewBox="0 0 16 16" enable-background="new 0 0 16 16" xml:space="preserve">
<g>
	<path d="M16,3c-0.6,0.3-1.2,0.4-1.9,0.5c0.7-0.4,1.2-1,1.5-1.8c-0.6,0.4-1.3,0.6-2.1,0.7c-0.6-0.6-1.5-1-2.4-1
		C9.3,1.5,7.9,3,7.9,4.7c0,0.3,0,0.5,0.1,0.7C5.1,5.4,2.8,4,1.1,2C0.9,2.5,0.7,3,0.7,3.7c0,1.2,0.6,2.1,1.5,2.8
		c-0.5,0-1-0.2-1.5-0.4c0,0,0,0,0,0.1c0,1.6,1.2,2.9,2.6,3.2C3.1,9.4,2.7,9.4,2.4,9.4c-0.2,0-0.4,0-0.6-0.1c0.4,1.3,1.6,2.2,3.1,2.3
		c-1.2,0.9-2.6,1.4-4.1,1.4c-0.3,0-0.5,0-0.7-0.1c1.5,1,3.2,1.5,5.1,1.5c6,0,9.4-5,9.4-9.4c0-0.1,0-0.3,0-0.4C15,4.3,15.6,3.8,16,3z
		"/>
</g>
</svg>
