<?xml version="1.0" encoding="utf-8"?>
<!-- Generator: Adobe Illustrator 19.1.0, SVG Export Plug-In . SVG Version: 6.00 Build 0)  -->
<svg version="1.1" id="Layer_1" xmlns="http://www.w3.org/2000/svg" xmlns:xlink="http://www.w3.org/1999/xlink" x="0px" y="0px"
	 viewBox="0 0 16 16" enable-background="new 0 0 16 16" xml:space="preserve">
<path d="M15,6.7C15,6.7,15,6.7,15,6.7l0-3c0.1-0.6-0.4-1.2-1.1-1.2H1.3V1.8c0-0.3,0.3-0.6,0.6-0.6h10.7c0-0.6-0.5-1.2-1.2-1.2H1.2
	C0.6-0.1,0,0.5,0,1.1v13.6C0,15.4,0.5,16,1.2,16h12.6c0.6,0,1.2-0.5,1.2-1.2v-3.1c0,0,0,0,0,0c0.6,0,1-0.4,1-1v-3
	C16,7.2,15.6,6.7,15,6.7z M12.5,10.7c-0.8,0-1.5-0.7-1.5-1.5c0-0.8,0.7-1.5,1.5-1.5S14,8.4,14,9.2C14,10,13.4,10.7,12.5,10.7z"/>
</svg>
